<?xml version="1.0" encoding="utf-8"?>
<!-- Generator: Adobe Illustrator 23.1.0, SVG Export Plug-In . SVG Version: 6.00 Build 0)  -->
<svg version="1.1" id="Layer_1" xmlns="http://www.w3.org/2000/svg" xmlns:xlink="http://www.w3.org/1999/xlink" x="0px" y="0px"
	 viewBox="0 0 221.5 253" style="enable-background:new 0 0 221.5 253;" xml:space="preserve">
<style type="text/css">
	.st0{fill-rule:evenodd;clip-rule:evenodd;fill:#333333;}
</style>
<path class="st0" d="M221.4,0.4C156-2.7,85.5,13,40.6,63.2S-8.8,181.9,11.9,243.6c3,9,1.9,8.3,11.4,8.6c0,0,0,0,0,0
	c46.2,3.6,96.1-4,130.1-37.9c24.8-24.7,36.9-59.4,38.1-93.9c0.6-15.4-1.4-30.9-6-45.6c-0.1-0.2-0.1-0.4-0.2-0.5
	c-2.5-8.4-2.1-7.9-11.2-8c-31.6,0.5-59.4,24.8-80.2,46.3c-20.4,21.2-27.3,30.6-39,54.8c-6.6,13.5,8.9,29.5,9,29.3
	c9.2-22.7,28-47.9,44.5-65.3c14.6-15.5,34.8-35.9,57.2-40.6l0.1,0c0,0,0,0,0,0l0,0c6.5,28.4,1.6,60.6-12.4,85.5
	c-24.8,44.1-74.3,55.4-121.4,53.3C16.4,177,20.1,119.5,58.9,77.8C100.2,33.3,163.5,20.4,202,23.5C218.1,24.8,221.9,0.4,221.4,0.4z"
	/>
</svg>
