<?xml version="1.0" encoding="utf-8"?>
<!-- Generator: Adobe Illustrator 23.1.0, SVG Export Plug-In . SVG Version: 6.00 Build 0)  -->
<svg version="1.1" id="Layer_1" xmlns="http://www.w3.org/2000/svg" xmlns:xlink="http://www.w3.org/1999/xlink" x="0px" y="0px"
	 viewBox="0 0 221.5 253" style="enable-background:new 0 0 221.5 253;" xml:space="preserve">
<style type="text/css">
	.st0{fill-rule:evenodd;clip-rule:evenodd;fill:#41866B;}
</style>
<path class="st0" d="M211.3,11.9C151.9,9.1,87.8,23.3,47,69s-44.9,107.9-26.1,164c2.7,8.2,1.7,7.5,10.4,7.8l0,0
	c42,3.3,87.4-3.6,118.3-34.5c22.5-22.5,33.5-54,34.6-85.4c0.5-14-1.3-28.1-5.5-41.5c-0.1-0.2-0.1-0.4-0.2-0.5
	c-2.3-7.6-1.9-7.2-10.2-7.3c-28.7,0.5-54,22.5-72.9,42.1c-18.5,19.3-24.8,27.8-35.5,49.8c-6,12.3,8.1,26.8,8.2,26.6
	c8.4-20.6,25.5-43.5,40.5-59.4c13.3-14.1,31.6-32.6,52-36.9h0.1l0,0l0,0c5.9,25.8,1.5,55.1-11.3,77.7
	c-22.5,40.1-67.5,50.4-110.4,48.5C25,172.4,28.3,120.1,63.6,82.2c37.5-40.5,95.1-52.2,130.1-49.4C208.3,34.1,211.8,11.9,211.3,11.9z
	"/>
</svg>
